<svg width="600" height="120" viewBox="0 0 600 120" fill="none" xmlns="http://www.w3.org/2000/svg">
<rect width="600" height="120" fill="white"/>
<path d="M8.48011 82H1.49148L17.1946 38.3636H24.8011L40.5043 82H33.5156L21.179 46.2898H20.8381L8.48011 82ZM60.0799 82.6605C56.9123 82.6605 54.185 81.9432 51.8981 80.5085C49.6254 79.0597 47.8782 77.0639 46.6566 74.5213C45.435 71.9787 44.8242 69.0668 44.8242 65.7855C44.8242 62.4616 45.4492 59.5284 46.6992 56.9858C47.9492 54.429 49.7106 52.4332 51.9833 50.9986C54.256 49.5639 56.9336 48.8466 60.016 48.8466C62.5018 48.8466 64.7177 49.3082 66.6637 50.2315C68.6097 51.1406 70.1793 52.419 71.3725 54.0668C72.5799 55.7145 73.2972 57.6392 73.5245 59.8409H67.3242C66.9833 58.3068 66.2021 56.9858 64.9805 55.8778C63.7731 54.7699 62.1538 54.2159 60.1225 54.2159C58.3469 54.2159 56.7915 54.6847 55.4563 55.6222C54.1353 56.5455 53.1055 57.8665 52.3668 59.5852C51.6282 61.2898 51.2589 63.3068 51.2589 65.6364C51.2589 68.0227 51.6211 70.0824 52.3455 71.8153C53.07 73.5483 54.0927 74.8906 55.4137 75.8423C56.7489 76.794 58.3185 77.2699 60.1225 77.2699C61.3299 77.2699 62.4237 77.0497 63.4038 76.6094C64.3981 76.1548 65.229 75.5085 65.8967 74.6705C66.5785 73.8324 67.0543 72.8239 67.3242 71.6449H73.5245C73.2972 73.7614 72.6083 75.6506 71.4577 77.3125C70.3072 78.9744 68.766 80.2812 66.8342 81.233C64.9165 82.1847 62.6651 82.6605 60.0799 82.6605ZM94.1229 82.6605C91.0547 82.6605 88.3771 81.9574 86.0902 80.5511C83.8033 79.1449 82.0277 77.1776 80.7635 74.6491C79.4993 72.1207 78.8672 69.1662 78.8672 65.7855C78.8672 62.3906 79.4993 59.4219 80.7635 56.8793C82.0277 54.3366 83.8033 52.3622 86.0902 50.956C88.3771 49.5497 91.0547 48.8466 94.1229 48.8466C97.1911 48.8466 99.8686 49.5497 102.156 50.956C104.442 52.3622 106.218 54.3366 107.482 56.8793C108.746 59.4219 109.379 62.3906 109.379 65.7855C109.379 69.1662 108.746 72.1207 107.482 74.6491C106.218 77.1776 104.442 79.1449 102.156 80.5511C99.8686 81.9574 97.1911 82.6605 94.1229 82.6605ZM94.1442 77.3125C96.1328 77.3125 97.7805 76.7869 99.0874 75.7358C100.394 74.6847 101.36 73.2855 101.985 71.5384C102.624 69.7912 102.944 67.8665 102.944 65.7642C102.944 63.6761 102.624 61.7585 101.985 60.0114C101.36 58.25 100.394 56.8366 99.0874 55.7713C97.7805 54.706 96.1328 54.1733 94.1442 54.1733C92.1413 54.1733 90.4794 54.706 89.1584 55.7713C87.8516 56.8366 86.8786 58.25 86.2393 60.0114C85.6143 61.7585 85.3018 63.6761 85.3018 65.7642C85.3018 67.8665 85.6143 69.7912 86.2393 71.5384C86.8786 73.2855 87.8516 74.6847 89.1584 75.7358C90.4794 76.7869 92.1413 77.3125 94.1442 77.3125ZM137.221 68.4276V49.2727H143.613V82H137.349V76.3324H137.008C136.255 78.0795 135.048 79.5355 133.386 80.7003C131.738 81.8509 129.686 82.4261 127.228 82.4261C125.126 82.4261 123.265 81.9645 121.646 81.0412C120.041 80.1037 118.777 78.7188 117.853 76.8864C116.944 75.054 116.49 72.7884 116.49 70.0895V49.2727H122.86V69.3224C122.86 71.5526 123.478 73.3281 124.714 74.6491C125.95 75.9702 127.555 76.6307 129.529 76.6307C130.723 76.6307 131.909 76.3324 133.088 75.7358C134.281 75.1392 135.268 74.2372 136.049 73.0298C136.845 71.8224 137.235 70.2884 137.221 68.4276ZM158.544 62.5682V82H152.173V49.2727H158.288V54.5994H158.693C159.446 52.8665 160.625 51.4744 162.23 50.4233C163.849 49.3722 165.888 48.8466 168.345 48.8466C170.575 48.8466 172.528 49.3153 174.205 50.2528C175.881 51.1761 177.18 52.554 178.104 54.3864C179.027 56.2187 179.489 58.4844 179.489 61.1832V82H173.118V61.9503C173.118 59.5781 172.5 57.7244 171.264 56.3892C170.028 55.0398 168.331 54.3651 166.172 54.3651C164.695 54.3651 163.381 54.6847 162.23 55.3239C161.094 55.9631 160.192 56.9006 159.524 58.1364C158.871 59.358 158.544 60.8352 158.544 62.5682ZM203.31 49.2727V54.3864H185.433V49.2727H203.31ZM190.227 41.4318H196.598V72.3906C196.598 73.6264 196.783 74.5568 197.152 75.1818C197.521 75.7926 197.997 76.2116 198.58 76.4389C199.176 76.652 199.822 76.7585 200.518 76.7585C201.03 76.7585 201.477 76.723 201.861 76.652C202.244 76.581 202.543 76.5241 202.756 76.4815L203.906 81.7443C203.537 81.8864 203.011 82.0284 202.33 82.1705C201.648 82.3267 200.795 82.4119 199.773 82.4261C198.097 82.4545 196.534 82.1562 195.085 81.5312C193.636 80.9062 192.464 79.9403 191.57 78.6335C190.675 77.3267 190.227 75.6861 190.227 73.7116V41.4318ZM211.571 82V38.3636H227.125C230.52 38.3636 233.333 38.9815 235.563 40.2173C237.793 41.4531 239.462 43.1435 240.57 45.2884C241.678 47.419 242.232 49.8196 242.232 52.4901C242.232 55.1747 241.671 57.5895 240.549 59.7344C239.441 61.8651 237.765 63.5554 235.52 64.8054C233.29 66.0412 230.485 66.6591 227.104 66.6591H216.408V61.0767H226.507C228.652 61.0767 230.392 60.7074 231.728 59.9688C233.063 59.2159 234.043 58.1932 234.668 56.9006C235.293 55.608 235.605 54.1378 235.605 52.4901C235.605 50.8423 235.293 49.3793 234.668 48.1009C234.043 46.8224 233.056 45.821 231.706 45.0966C230.371 44.3722 228.61 44.0099 226.422 44.0099H218.155V82H211.571ZM258.67 82.7244C256.596 82.7244 254.721 82.3409 253.045 81.5739C251.369 80.7926 250.041 79.6634 249.061 78.1861C248.095 76.7088 247.612 74.8977 247.612 72.7528C247.612 70.9062 247.967 69.3864 248.677 68.1932C249.387 67 250.346 66.0554 251.554 65.3594C252.761 64.6634 254.11 64.1378 255.602 63.7827C257.093 63.4276 258.613 63.1577 260.162 62.973C262.122 62.7457 263.713 62.5611 264.934 62.419C266.156 62.2628 267.044 62.0142 267.598 61.6733C268.152 61.3324 268.429 60.7784 268.429 60.0114V59.8622C268.429 58.0014 267.903 56.5597 266.852 55.5369C265.815 54.5142 264.267 54.0028 262.207 54.0028C260.062 54.0028 258.372 54.4787 257.136 55.4304C255.914 56.3679 255.069 57.4119 254.6 58.5625L248.613 57.1989C249.324 55.2102 250.36 53.6051 251.724 52.3835C253.102 51.1477 254.686 50.2528 256.475 49.6989C258.265 49.1307 260.147 48.8466 262.122 48.8466C263.429 48.8466 264.814 49.0028 266.277 49.3153C267.754 49.6136 269.132 50.1676 270.41 50.9773C271.703 51.7869 272.761 52.9446 273.585 54.4503C274.409 55.9418 274.821 57.8807 274.821 60.267V82H268.599V77.5256H268.343C267.931 78.3494 267.314 79.1591 266.49 79.9545C265.666 80.75 264.608 81.4105 263.315 81.9361C262.022 82.4616 260.474 82.7244 258.67 82.7244ZM260.055 77.6108C261.816 77.6108 263.322 77.2628 264.572 76.5668C265.836 75.8707 266.795 74.9616 267.449 73.8395C268.116 72.7031 268.45 71.4886 268.45 70.196V65.9773C268.223 66.2045 267.782 66.4176 267.129 66.6165C266.49 66.8011 265.758 66.9645 264.934 67.1065C264.11 67.2344 263.308 67.3551 262.527 67.4688C261.745 67.5682 261.092 67.6534 260.566 67.7244C259.331 67.8807 258.201 68.1435 257.179 68.5128C256.17 68.8821 255.36 69.4148 254.75 70.1108C254.153 70.7926 253.855 71.7017 253.855 72.8381C253.855 74.4148 254.437 75.608 255.602 76.4176C256.767 77.2131 258.251 77.6108 260.055 77.6108ZM286.161 94.2727C285.21 94.2727 284.343 94.1946 283.562 94.0384C282.781 93.8963 282.198 93.7401 281.815 93.5696L283.349 88.3494C284.513 88.6619 285.55 88.7969 286.46 88.7543C287.369 88.7116 288.171 88.3707 288.867 87.7315C289.577 87.0923 290.202 86.0483 290.742 84.5994L291.531 82.4261L279.556 49.2727H286.374L294.663 74.6705H295.004L303.292 49.2727H310.131L296.644 86.3679C296.019 88.0724 295.224 89.5142 294.258 90.6932C293.292 91.8864 292.141 92.7813 290.806 93.3778C289.471 93.9744 287.923 94.2727 286.161 94.2727Z" fill="white"/>
</svg>
